# File created by Blade
# Date/Time:  Wed Jan 21 16:02:01 2015
# Frame Rate: 120.000 fps
#------------------------------------------------------
:FULLY-SPECIFIED
:DEGREES
1793
root 19.553862 32.684811 -17.984322 -174.453096 1.946090 -177.806642
Spine -6.510092 5.933712 -6.916414
Head 46.584862 -6.602110 3.360289
LeftShoulder -18.315536 -24.114019 3.693949
LeftArm -24.898198 7.376180 -68.880108
LeftForeArm 5.030468 0.000000 17.452483
LeftHand -2.877921 0.000000 3.352090
LeftHandThumb1 -26.253704 0.000000 33.147579
RightShoulder -12.102186 3.938655 -29.754800
RightArm 18.198453 47.517243 4.166454
RightForeArm -48.210414 -0.000000 50.675491
RightHand -3.232564 -0.000000 -25.895974
RightHandThumb1 -24.326973 -0.000000 -32.862282
LeftUpLeg 15.217282 0.649440 -17.126401
LeftLeg -0.147132 -0.000000 0.000000
LeftFoot -34.475561 19.209186 -14.505650
LeftToeBase 17.916939 -0.000000 -0.000000
RightUpLeg -16.304713 6.490392 23.597013
RightLeg -3.394510 -0.000000 0.000000
RightFoot -2.620229 -29.872984 -0.309934
RightToeBase 22.790930 -0.000000 -0.000000
1794
root 19.514440 32.690699 -17.957120 -174.550331 1.833004 -177.758389
Spine -5.971039 5.724871 -6.509351
Head 46.632751 -6.481086 3.365472
LeftShoulder -18.374988 -23.994565 3.737239
LeftArm -24.879642 7.466344 -69.131836
LeftForeArm 5.058891 0.000000 17.376449
LeftHand -2.775060 0.000000 3.382627
LeftHandThumb1 -26.253704 0.000000 33.147579
RightShoulder -12.195055 3.771457 -29.603224
RightArm 17.727337 47.922775 4.367713
RightForeArm -47.949663 -0.000000 51.538169
RightHand -3.277024 -0.000000 -25.881944
RightHandThumb1 -24.326973 -0.000000 -32.862282
LeftUpLeg 15.217704 0.648355 -17.112085
LeftLeg -0.030387 -0.000000 0.000000
LeftFoot -34.463062 19.176716 -14.462862
LeftToeBase 17.926073 -0.000000 -0.000000
RightUpLeg -16.296339 6.433264 23.572069
RightLeg -3.393818 -0.000000 0.000000
RightFoot -2.614147 -30.026628 -0.020805
RightToeBase 22.196198 -0.000000 -0.000000
1795
root 19.476476 32.695750 -17.934734 -174.648956 1.706286 -177.706677
Spine -5.446878 5.537931 -6.103968
Head 46.678907 -6.460096 3.302442
LeftShoulder -18.365980 -23.845817 3.703399
LeftArm -24.890726 7.590216 -69.341908
LeftForeArm 5.102094 0.000000 17.425403
LeftHand -2.772982 -0.000000 3.414198
LeftHandThumb1 -26.253704 0.000000 33.147579
RightShoulder -12.252221 3.593795 -29.481559
RightArm 17.110859 48.338191 4.525978
RightForeArm -47.801150 -0.000000 52.532753
RightHand -3.477294 -0.000000 -25.669348
RightHandThumb1 -24.326973 -0.000000 -32.862282
LeftUpLeg 15.256783 0.613948 -17.095655
LeftLeg 0.033568 -0.000000 -0.000000
LeftFoot -34.421287 19.167083 -14.407612
LeftToeBase 17.888241 -0.000000 -0.000000
RightUpLeg -16.272875 6.280830 23.581600
RightLeg -3.415114 -0.000000 0.000000
RightFoot -2.586064 -30.077363 0.018952
RightToeBase 22.293860 -0.000000 -0.000000
1796
root 19.435485 32.701579 -17.908783 -174.735124 1.593619 -177.678836
Spine -4.930180 5.320355 -5.738028
Head 46.721153 -6.443302 3.262808
LeftShoulder -18.421527 -23.735251 3.749563
LeftArm -24.915603 7.716127 -69.612856
LeftForeArm 5.036284 -0.000000 17.437950
LeftHand -2.815467 -0.000000 3.512897
LeftHandThumb1 -26.253704 0.000000 33.147579
RightShoulder -12.296067 3.475831 -29.357010
RightArm 16.521539 48.716061 4.735201
RightForeArm -47.472357 -0.000000 53.529281
RightHand -3.506107 -0.000000 -25.616985
RightHandThumb1 -24.326973 -0.000000 -32.862282
LeftUpLeg 15.265589 0.628534 -17.094263
LeftLeg 0.116078 -0.000000 -0.000000
LeftFoot -34.360364 19.099892 -14.347049
LeftToeBase 18.012304 -0.000000 -0.000000
RightUpLeg -16.281583 6.264291 23.510744
RightLeg -3.408609 -0.000000 0.000000
RightFoot -2.542877 -30.222307 -0.245791
RightToeBase 22.711780 -0.000000 -0.000000
1797
root 19.395542 32.706673 -17.884108 -174.827000 1.460806 -177.636259
Spine -4.385778 5.063168 -5.341487
Head 46.731063 -6.335917 3.284665
LeftShoulder -18.506198 -23.611405 3.739154
LeftArm -24.876484 7.795408 -69.793491
LeftForeArm 4.956215 0.000000 17.417717
LeftHand -2.775277 -0.000000 3.456274
LeftHandThumb1 -26.253704 0.000000 33.147579
RightShoulder -12.353045 3.294847 -29.221128
RightArm 15.958754 49.172378 4.967402
RightForeArm -47.283301 -0.000000 54.583560
RightHand -3.597984 0.000000 -25.447016
RightHandThumb1 -24.326973 -0.000000 -32.862282
LeftUpLeg 15.284962 0.568809 -17.091695
LeftLeg 0.202515 -0.000000 -0.000000
LeftFoot -34.313803 19.088258 -14.304778
LeftToeBase 17.847407 -0.000000 -0.000000
RightUpLeg -16.276164 6.189097 23.478775
RightLeg -3.424289 -0.000000 0.000000
RightFoot -2.492692 -30.355117 -0.243216
RightToeBase 22.649075 -0.000000 -0.000000
